<svg xmlns="http://www.w3.org/2000/svg" xml:space="preserve" width="2000" height="561" data-id="lg_IHHjMqRpBenwg6OnKd" data-version="1" viewBox="0 0 2000 561"><g data-padding="20"><g transform="translate(10 10)scale(.96435)"><path fill="#330c2f" d="M1303.25 277.846v.415Zm-553.98.222v.222-.503Zm555.46.592v-1.185c-.933-56.61-30.991-106.44-80.853-133.703a153.9 153.9 0 0 1-61.212-61.213c-27.691-50.645-78.677-80.867-136.397-80.867h-.83c-57.38.296-108.01 30.458-135.567 80.867a153.9 153.9 0 0 1-61.213 61.213c-49.965 27.32-80.038 77.3-80.867 134.058v2.34c0 57.72 30.222 108.705 80.867 136.396a153.9 153.9 0 0 1 61.213 61.212c27.558 50.41 78.188 80.572 135.568 80.869h.829c57.705 0 108.706-30.222 136.397-80.868a153.9 153.9 0 0 1 61.212-61.212c50.646-27.691 80.868-78.677 80.868-136.397Zm-555.444-.37v-.503Zm553.964-.03v-.414Z"/><path fill="#fff" d="M1305.442 278.166v.417Zm-557.722.224v.223-.506Zm559.222.59v-1.191c-.94-56.993-31.2-107.161-81.4-134.607a154.96 154.96 0 0 1-61.625-61.626c-27.88-50.988-79.21-81.414-137.32-81.414h-.833C967.997.44 917.024 30.806 889.28 81.556a154.96 154.96 0 0 1-61.626 61.626c-50.303 27.505-80.58 77.823-81.414 134.964v2.354c0 58.11 30.426 109.44 81.414 137.319a154.96 154.96 0 0 1 61.626 61.625c27.744 50.75 78.717 81.117 136.484 81.415h.834c58.096 0 109.44-30.427 137.319-81.415a154.96 154.96 0 0 1 61.626-61.625c50.988-27.88 81.415-79.21 81.415-137.32Zm-1.49-.402a10.147 10.147 0 0 1-20.294-.193c0-5.603 4.56-10.162 10.162-10.162s10.028 4.44 10.132 9.938ZM1162.62 82.27a156 156 0 0 0 62.207 62.207c48.097 26.314 77.718 73.68 80.445 127.857a11.682 11.682 0 0 0-20.294.656c-2.503-50.645-30.187-94.928-75.14-119.513a143.04 143.04 0 0 1-56.963-56.963 144.53 144.53 0 0 0-53.03-55.338 143.8 143.8 0 0 0-68.598-19.877 11.25 11.25 0 0 0 .298-19.593c55.503 1.668 104.24 31.513 131.075 80.564m121.048 198.23c0 53.192-27.863 100.202-74.545 125.726a144.53 144.53 0 0 0-57.543 57.543c-25.524 46.682-72.534 74.544-125.727 74.544s-100.187-27.861-125.725-74.543a144.53 144.53 0 0 0-57.544-57.543c-46.681-25.524-74.544-72.534-74.544-125.727s27.863-100.187 74.544-125.726a144.53 144.53 0 0 0 57.544-57.544c25.539-46.681 72.533-74.544 125.726-74.544a143.04 143.04 0 0 1 73.234 19.772 143.04 143.04 0 0 1 52.493 54.772 144.53 144.53 0 0 0 57.543 57.544c46.68 25.539 74.544 72.533 74.544 125.726M1025.928 1.632a9.804 9.804 0 1 1-.18 0Zm-197.56 142.846a156 156 0 0 0 62.208-62.207c26.582-48.574 74.634-78.315 129.496-80.505a11.19 11.19 0 0 0-5.498 9.655c0 4.113 2.384 7.972 5.886 9.879-51.51 1.803-96.701 29.636-121.63 75.215a143.04 143.04 0 0 1-56.962 56.963c-45.013 24.615-72.712 69.002-75.155 119.72a10.877 10.877 0 0 0-18.79-.61c2.623-54.28 32.274-101.752 80.446-128.11m-80.64 133.907v-.283c.15-5.052 4.292-9.134 9.388-9.134s9.417 4.23 9.417 9.416c0 5.185-4.217 9.416-9.417 9.416s-9.283-4.096-9.387-9.192ZM890.577 478.73a156 156 0 0 0-62.207-62.207c-49.498-27.074-79.432-76.452-80.61-132.596a10.877 10.877 0 0 0 18.834-.134c1.118 52.389 29.085 98.46 75.275 123.73a143.04 143.04 0 0 1 56.963 56.963c24.928 45.579 70.12 73.412 121.629 75.215a11.25 11.25 0 0 0-.388 19.534c-54.862-2.19-102.914-31.932-129.496-80.505m135.352 80.639h-.18c-5.348-.06-9.684-4.425-9.684-9.79s4.396-9.774 9.79-9.774a9.79 9.79 0 0 1 .074 19.564m198.9-142.846a156 156 0 0 0-62.207 62.207c-26.835 49.05-75.558 78.896-131.076 80.563a11.22 11.22 0 0 0-.298-19.592c51.51-1.803 96.7-29.636 121.629-75.215a143.04 143.04 0 0 1 56.963-56.963c46.13-25.226 74.082-71.207 75.274-123.506a11.667 11.667 0 0 0 20.31.134c-1.238 56.039-31.172 105.328-80.595 132.372"/><rect width="228.274" height="168.415" x="512.461" y="-203.708" fill="none" rx="0" ry="0" transform="translate(400.5 386.14)"/><path fill="#fff" d="M981.708 191.6h-4.59v28.14l-28.62-30.03v39.69h4.59v-28.13l28.62 30.02Zm11.18 33.48v4.32h19.06v-4.32Zm0-33.48v4.32h19.06v-4.32Zm0 15.12v4.32h17.98v-4.32Zm2.05-15.12h-4.59v37.8h4.59Zm49.4 0h-5.4l-8.04 13.99-7.89-13.99h-5.4l10.96 17.99-12.31 19.81h5.4l9.18-15.82 8.91 15.82h5.4l-11.99-19.81Zm10 0h-4.59v25.38q0 2.81.89 5.19.89 2.37 2.6 4.1 1.7 1.73 4.07 2.7 2.38.97 5.29.97 2.92 0 5.3-.97 2.37-.97 4.07-2.7t2.6-4.1q.89-2.38.89-5.19V191.6h-4.59v25.38q0 3.89-2.11 6.27-2.11 2.37-6.16 2.37t-6.15-2.37q-2.11-2.38-2.11-6.27Zm30.89 26.36-3.67 2.48q1.24 2.48 3.21 4.67t4.59 3.51 5.7 1.32q2.27 0 4.35-.75 2.07-.76 3.72-2.16 1.65-1.41 2.59-3.4.95-2 .95-4.49 0-2.59-.92-4.45t-2.35-3.19q-1.43-1.32-3.1-2.18-1.68-.87-3.19-1.41-3.29-1.13-5.21-2.29t-2.73-2.49q-.81-1.32-.81-2.89 0-1.83 1.41-3.32 1.4-1.48 4.48-1.48 2.21 0 3.75.86 1.54.87 2.62 2.22t1.78 2.75l3.94-2.27q-.91-2-2.53-3.8-1.62-1.81-3.92-2.97-2.29-1.17-5.37-1.17-3.19 0-5.67 1.27-2.49 1.27-3.89 3.49-1.4 2.21-1.4 5.02 0 2.59 1 4.37.99 1.78 2.56 3 1.57 1.21 3.29 2 1.73.78 3.14 1.27 2.16.75 4.07 1.7 1.92.94 3.11 2.45 1.19 1.52 1.19 4.05 0 2.6-1.84 4.27t-4.86 1.67q-2.27 0-4.05-.97t-3.21-2.7-2.73-3.99m-111.41 45.97v4.32h12.58q-.49 2.22-1.54 4.16t-2.67 3.46q-1.62 1.51-3.87 2.35-2.24.83-5.04.83-4 0-7.24-1.89t-5.16-5.24q-1.91-3.34-1.91-7.72 0-4.43 1.91-7.75 1.92-3.32 5.16-5.21t7.24-1.89q4.32 0 7.5 1.7 3.19 1.7 4.97 4.73l3.24-2.97q-1.62-2.65-3.97-4.43t-5.29-2.7-6.45-.92q-4.11 0-7.62 1.43t-6.1 4.05-4.02 6.19q-1.43 3.56-1.43 7.77t1.43 7.78q1.43 3.56 4.02 6.18t6.1 4.05 7.62 1.43q4.32 0 7.69-1.59 3.38-1.59 5.7-4.35 2.32-2.75 3.51-6.29t1.19-7.48Zm29.53 3.52-1.62 4.32h19.98l-1.62-4.32Zm1.89 1.41 6.38-15.02 6.48 15.23.43 1.08 5.51 12.96h5.13l-17.55-39.69-17.55 39.69h5.13l5.61-13.28Zm30.95 14.25 2.8-25.54 12.32 22.03 12.31-22.03 2.81 25.54h4.59l-4.59-39.69-15.12 27.38-15.12-27.38-4.59 39.69Zm43.84-4.33v4.32h19.07v-4.32Zm0-33.48v4.32h19.07v-4.32Zm0 15.12v4.32h17.99v-4.32Zm2.06-15.12h-4.59v37.8h4.59ZM914.808 299v4.32h9.72v33.48h4.59v-33.48h9.72V299Zm40.78 19.17h-5.13l12.96 18.63h5.67Zm-7.29-19.17h-4.59v37.8h4.59Zm-2.05 0v4.05h7.72q2.43 0 4.29.86 1.87.87 2.92 2.49t1.05 3.94-1.05 3.94-2.92 2.49q-1.86.86-4.29.86h-7.72v4.05h7.72q3.67 0 6.56-1.38 2.89-1.37 4.59-3.94 1.7-2.56 1.7-6.02 0-3.51-1.7-6.05t-4.59-3.91q-2.89-1.38-6.56-1.38Zm32.94 22.14-1.62 4.32h19.98l-1.62-4.32Zm1.89 1.4 6.37-15.01 6.48 15.23.43 1.08 5.51 12.96h5.13l-17.55-39.69-17.55 39.69h5.13l5.62-13.28Zm33.1-23.54h-4.59v37.8h4.59Zm-2.05 37.8h8.8q5.51 0 9.77-2.38 4.27-2.37 6.7-6.61t2.43-9.91-2.43-9.91-6.7-6.61q-4.26-2.38-9.77-2.38h-8.8v4.59h8.8q3.19 0 5.83 1 2.65 1 4.54 2.86t2.91 4.51q1.03 2.65 1.03 5.94t-1.03 5.94q-1.02 2.65-2.91 4.51t-4.54 2.86q-2.64 1-5.83 1h-8.8Zm38.77-37.8h-4.59v37.8h4.59Zm41.85 0h-4.59v28.13l-28.62-30.02v39.69h4.59v-28.13l28.62 30.02Zm26.19 18.63v4.32h12.58q-.48 2.21-1.54 4.16-1.05 1.94-2.67 3.45-1.62 1.52-3.86 2.35-2.24.84-5.05.84-4 0-7.24-1.89t-5.15-5.24q-1.92-3.35-1.92-7.72 0-4.43 1.92-7.75 1.91-3.32 5.15-5.21t7.24-1.89q4.32 0 7.51 1.7 3.18 1.7 4.96 4.73l3.24-2.97q-1.62-2.65-3.96-4.43-2.35-1.78-5.3-2.7-2.94-.92-6.45-.92-4.1 0-7.61 1.43t-6.11 4.05q-2.59 2.62-4.02 6.18-1.43 3.57-1.43 7.78t1.43 7.78q1.43 3.56 4.02 6.18 2.6 2.62 6.11 4.05t7.61 1.43q4.32 0 7.7-1.59 3.37-1.6 5.69-4.35t3.51-6.29 1.19-7.48Z"/><rect width="62.601" height="54.941" x="595.297" y="-146.97" fill="none" rx="0" ry="0" transform="translate(400.5 525.96)"/><path fill="#fff" d="M1006.988 399.27v2.08h9.18v-2.08Zm0-16.12v2.08h9.18v-2.08Zm0 7.28v2.08h8.66v-2.08Zm.99-7.28h-2.21v18.2h2.21Zm12.77 12.69-1.77 1.19q.6 1.2 1.55 2.25t2.21 1.69 2.74.64q1.1 0 2.1-.37 1-.36 1.79-1.04.79-.67 1.25-1.63.45-.97.45-2.16 0-1.25-.44-2.15-.44-.89-1.13-1.53t-1.49-1.05q-.81-.42-1.54-.68-1.58-.55-2.51-1.1-.92-.56-1.31-1.2t-.39-1.39q0-.89.68-1.6.67-.72 2.15-.72 1.07 0 1.81.42t1.26 1.07.86 1.32l1.9-1.09q-.44-.96-1.22-1.83t-1.89-1.43q-1.1-.56-2.59-.56-1.53 0-2.73.61-1.19.61-1.87 1.68-.67 1.06-.67 2.41 0 1.25.48 2.11t1.23 1.44q.76.59 1.59.97.83.37 1.51.61 1.04.36 1.96.82.92.45 1.49 1.18.58.73.58 1.95 0 1.25-.89 2.05-.88.81-2.34.81-1.09 0-1.95-.47t-1.54-1.3q-.69-.83-1.32-1.92m11.75-12.69v2.08h4.68v16.12h2.21v-16.12h4.68v-2.08Zm14.29 17.16q0 .57.43 1t1 .43q.6 0 1.02-.43.41-.43.41-1 0-.6-.41-1.02-.42-.41-1.02-.41-.57 0-1 .41-.43.42-.43 1.02m-41.26 17.42-8.6 9.18h12.84v-2.08h-8.29l5.79-5.9q1.07-1.09 1.75-2.47.67-1.38.67-2.78 0-.84-.34-1.75-.33-.91-1.04-1.7-.7-.79-1.79-1.3t-2.6-.51q-1.87 0-3.21.82t-2.04 2.29-.7 3.42h2.21q0-1.38.44-2.38t1.29-1.53q.84-.54 2.01-.54.83 0 1.48.29t1.11.75q.45.47.69 1.04.23.58.23 1.17 0 .73-.22 1.39-.22.67-.65 1.3-.43.64-1.03 1.29m8.92.08q0-1.59.31-2.93.31-1.33.91-2.31.6-.97 1.45-1.51.84-.53 1.88-.53 1.07 0 1.9.53.83.54 1.43 1.51.6.98.91 2.31.31 1.34.31 2.93t-.31 2.92q-.31 1.34-.91 2.32-.6.97-1.43 1.51-.83.53-1.9.53-1.04 0-1.88-.53-.85-.54-1.45-1.51-.6-.98-.91-2.32-.31-1.33-.31-2.92m-2.21 0q0 2.73.86 4.84.86 2.1 2.38 3.31t3.52 1.21 3.52-1.21 2.38-3.31q.86-2.11.86-4.84t-.86-4.84q-.86-2.1-2.38-3.31t-3.52-1.21-3.52 1.21-2.38 3.31q-.86 2.11-.86 4.84m23.69-.08-8.61 9.18h12.84v-2.08h-8.29l5.8-5.9q1.06-1.09 1.74-2.47t.68-2.78q0-.84-.34-1.75t-1.04-1.7-1.8-1.3q-1.09-.51-2.6-.51-1.87 0-3.21.82t-2.04 2.29-.7 3.42h2.21q0-1.38.44-2.38t1.29-1.53q.84-.54 2.01-.54.84 0 1.49.29t1.1.75q.46.47.69 1.04.23.58.23 1.17 0 .73-.22 1.39-.22.67-.65 1.3-.43.64-1.02 1.29m16.27-9.02-10.09 14.56h13.86v-1.95h-10.22l5.15-7.7v13.29h2.21v-18.2Z"/></g><path fill="transparent" stroke="transparent" d="M719.5 0h561v561h-561z"/></g></svg>